<svg xmlns="http://www.w3.org/2000/svg" xmlns:xlink="http://www.w3.org/1999/xlink" viewBox="0 0 100 125">
    <path d="M50,61.095c-6.119,0-11.097-4.978-11.097-11.096S43.881,38.904,50,38.904c6.118,0,11.096,4.978,11.096,11.096    S56.118,61.095,50,61.095z M50,40.904c-5.016,0-9.097,4.08-9.097,9.096s4.081,9.096,9.097,9.096c5.016,0,9.096-4.08,9.096-9.096    S55.015,40.904,50,40.904z"/>
    <path d="M50,71.714c-0.552,0-1-0.448-1-1V65.38c0-0.552,0.448-1,1-1s1,0.448,1,1v5.334C51,71.267,50.552,71.714,50,71.714z"/>
    <path d="M50,35.619c-0.552,0-1-0.448-1-1v-5.334c0-0.552,0.448-1,1-1s1,0.448,1,1v5.334C51,35.171,50.552,35.619,50,35.619z"/>
    <path d="M70.715,51h-5.333c-0.552,0-1-0.448-1-1s0.448-1,1-1h5.333c0.552,0,1,0.448,1,1S71.267,51,70.715,51z"/>
    <path d="M34.619,51h-5.334c-0.552,0-1-0.448-1-1s0.448-1,1-1h5.334c0.552,0,1,0.448,1,1S35.171,51,34.619,51z"/>
    <path d="M35.352,65.648c-0.256,0-0.512-0.098-0.707-0.293c-0.391-0.391-0.391-1.024,0-1.414l3.772-3.771     c0.391-0.391,1.023-0.391,1.414,0s0.391,1.024,0,1.414l-3.772,3.771C35.864,65.55,35.608,65.648,35.352,65.648z"/>
    <path d="M60.876,40.123c-0.256,0-0.512-0.098-0.707-0.293c-0.391-0.391-0.391-1.024,0-1.414l3.771-3.77     c0.391-0.391,1.023-0.391,1.414,0s0.391,1.024,0,1.414l-3.771,3.77C61.388,40.025,61.132,40.123,60.876,40.123z"/>
    <path d="M64.647,65.648c-0.256,0-0.512-0.098-0.707-0.293l-3.771-3.771c-0.391-0.391-0.391-1.023,0-1.414s1.023-0.391,1.414,0     l3.771,3.771c0.391,0.391,0.391,1.023,0,1.414C65.159,65.55,64.903,65.648,64.647,65.648z"/>
    <path d="M39.123,40.123c-0.256,0-0.512-0.098-0.707-0.293l-3.771-3.77c-0.391-0.39-0.391-1.023,0-1.414     c0.39-0.391,1.023-0.391,1.414,0l3.771,3.77c0.391,0.39,0.391,1.023,0,1.414C39.635,40.025,39.379,40.123,39.123,40.123z"/>
</svg>
