<svg class="icon-min" xmlns="http://www.w3.org/2000/svg" xmlns:xlink="http://www.w3.org/1999/xlink" viewBox="0 0 100 125">
    <path d="M70.715,49h-3.961l2.668-2.668c0.391-0.391,0.391-1.023,0-1.414s-1.023-0.391-1.414,0L63.926,49h-5.588  c-0.052-0.433-0.139-0.855-0.254-1.266l3.4-1.408c0.51-0.211,0.752-0.796,0.541-1.307c-0.212-0.51-0.794-0.752-1.307-0.541  l-3.399,1.408c-0.212-0.376-0.454-0.733-0.72-1.071l3.955-3.955h5.773c0.552,0,1-0.448,1-1s-0.448-1-1-1h-3.773l2.801-2.801  c0.391-0.391,0.391-1.023,0-1.414s-1.023-0.391-1.414,0l-2.801,2.801v-3.773c0-0.552-0.448-1-1-1s-1,0.448-1,1v5.773l-3.955,3.955  c-0.337-0.266-0.694-0.507-1.07-0.72l1.408-3.399c0.211-0.51-0.031-1.095-0.541-1.307c-0.512-0.211-1.095,0.031-1.307,0.541  l-1.408,3.4c-0.411-0.115-0.833-0.203-1.267-0.254v-5.588l4.082-4.082c0.391-0.391,0.391-1.023,0-1.414s-1.023-0.391-1.414,0  L51,33.246v-3.961c0-0.552-0.448-1-1-1s-1,0.448-1,1v3.961l-2.668-2.668c-0.391-0.391-1.023-0.391-1.414,0s-0.391,1.023,0,1.414  L49,36.074v5.588c-0.433,0.052-0.855,0.139-1.266,0.254l-1.408-3.4c-0.212-0.51-0.794-0.752-1.307-0.541  c-0.51,0.211-0.752,0.796-0.541,1.307l1.408,3.399c-0.376,0.212-0.733,0.454-1.071,0.72l-3.955-3.955v-5.773c0-0.552-0.448-1-1-1  s-1,0.448-1,1v3.773l-2.801-2.801c-0.391-0.391-1.023-0.391-1.414,0s-0.391,1.023,0,1.414l2.801,2.801h-3.773c-0.552,0-1,0.448-1,1  s0.448,1,1,1h5.773l3.955,3.955c-0.266,0.337-0.508,0.694-0.72,1.071l-3.399-1.408c-0.513-0.211-1.096,0.031-1.307,0.541  c-0.211,0.51,0.031,1.095,0.541,1.307l3.4,1.408c-0.115,0.411-0.202,0.833-0.254,1.266h-5.588l-4.082-4.082  c-0.391-0.391-1.023-0.391-1.414,0s-0.391,1.023,0,1.414L33.246,49h-3.961c-0.552,0-1,0.448-1,1s0.448,1,1,1h3.961l-2.668,2.668  c-0.391,0.391-0.391,1.023,0,1.414c0.195,0.195,0.451,0.293,0.707,0.293s0.512-0.098,0.707-0.293L36.074,51h5.589  c0.052,0.433,0.139,0.855,0.254,1.266l-3.4,1.408c-0.51,0.211-0.752,0.796-0.541,1.307c0.16,0.385,0.532,0.618,0.924,0.618  c0.127,0,0.257-0.025,0.382-0.077l3.399-1.408c0.212,0.376,0.454,0.733,0.72,1.071l-3.955,3.955h-5.773c-0.552,0-1,0.448-1,1  s0.448,1,1,1h3.773l-2.801,2.801c-0.391,0.391-0.391,1.023,0,1.414c0.195,0.195,0.451,0.293,0.707,0.293s0.512-0.098,0.707-0.293  l2.801-2.801v3.773c0,0.552,0.448,1,1,1s1-0.448,1-1v-5.773l3.955-3.955c0.338,0.266,0.695,0.508,1.071,0.72l-1.408,3.399  c-0.211,0.51,0.031,1.095,0.541,1.307c0.125,0.052,0.255,0.077,0.382,0.077c0.393,0,0.765-0.233,0.924-0.618l1.408-3.4  c0.411,0.115,0.833,0.202,1.266,0.254v5.588l-4.082,4.082c-0.391,0.391-0.391,1.023,0,1.414c0.195,0.195,0.451,0.293,0.707,0.293  s0.512-0.098,0.707-0.293L49,66.753v3.961c0,0.552,0.448,1,1,1s1-0.448,1-1v-3.961l2.668,2.668c0.195,0.195,0.451,0.293,0.707,0.293  s0.512-0.098,0.707-0.293c0.391-0.391,0.391-1.023,0-1.414L51,63.925v-5.588c0.434-0.052,0.855-0.139,1.266-0.254l1.409,3.4  c0.16,0.385,0.532,0.618,0.924,0.618c0.127,0,0.257-0.025,0.382-0.077c0.51-0.211,0.752-0.796,0.541-1.307l-1.408-3.399  c0.376-0.212,0.733-0.454,1.07-0.72l3.955,3.955v5.773c0,0.552,0.448,1,1,1s1-0.448,1-1v-3.773l2.801,2.801  c0.195,0.195,0.451,0.293,0.707,0.293s0.512-0.098,0.707-0.293c0.391-0.391,0.391-1.023,0-1.414l-2.801-2.801h3.773  c0.552,0,1-0.448,1-1s-0.448-1-1-1h-5.773l-3.955-3.955c0.266-0.337,0.507-0.694,0.72-1.071l3.399,1.408  c0.125,0.052,0.255,0.077,0.382,0.077c0.393,0,0.765-0.233,0.924-0.618c0.211-0.51-0.031-1.095-0.541-1.307l-3.4-1.408  c0.115-0.411,0.202-0.833,0.254-1.266h5.589l4.082,4.082c0.195,0.195,0.451,0.293,0.707,0.293s0.512-0.098,0.707-0.293  c0.391-0.391,0.391-1.023,0-1.414L66.754,51h3.961c0.552,0,1-0.448,1-1S71.267,49,70.715,49z M50,56.402  c-3.53,0-6.402-2.872-6.402-6.403c0-3.53,2.872-6.402,6.402-6.402s6.402,2.872,6.402,6.402C56.402,53.53,53.53,56.402,50,56.402z" />
</svg>
