<svg class="icon-temp-max" width="44" height="44" viewBox="0 0 44 44" xmlns="http://www.w3.org/2000/svg"><path d="M22 33c-6 0-11-5-11-11s5-11 11-11 11 5 11 11-5 11-11 11zm0-20c-5 0-9 4-9 9s4 9 9 9 9-4 9-9-4-9-9-9zm0 30.7a1 1 0 0 1-1-1v-5.3a1 1 0 0 1 2 0v5.3a1 1 0 0 1-1 1zm0-36a1 1 0 0 1-1-1V1.2a1 1 0 0 1 2 0v5.3a1 1 0 0 1-1 1zM42.7 23h-5.3a1 1 0 0 1 0-2h5.3a1 1 0 0 1 0 2zm-36 0H1.2a1 1 0 0 1 0-2h5.3a1 1 0 0 1 0 2zm.7 14.6a1 1 0 0 1-.8-1.7l3.8-3.8a1 1 0 1 1 1.4 1.4L8 37.4a1 1 0 0 1-.6.2zM33 12a1 1 0 0 1-.8-1.6L36 6.6A1 1 0 1 1 37.3 8L33.6 12a1 1 0 0 1-.7.3zm3.6 25.6a1 1 0 0 1-.7-.2L32 33.6a1 1 0 1 1 1.4-1.4l3.8 3.7a1 1 0 0 1-.8 1.6zM11 12a1 1 0 0 1-.6-.2L6.6 8A1 1 0 1 1 8 6.7l3.8 3.8A1 1 0 0 1 11 12z"/></svg>
