<svg class="icon-temp-min" width="44" height="44" viewBox="0 0 44 44" xmlns="http://www.w3.org/2000/svg"><path d="M42.7 21h-4l2.7-2.7A1 1 0 1 0 40 17l-4 4h-5.7a8.4 8.4 0 0 0-.2-1.3l3.5-1.4a1 1 0 0 0-.8-1.8L29.3 18a8.4 8.4 0 0 0-.7-1.2l4-4h5.7a1 1 0 0 0 0-2h-3.7l2.8-2.7A1 1 0 1 0 36 6.7l-3 2.8V5.7a1 1 0 0 0-2 0v5.7l-3.8 4a8.4 8.4 0 0 0-1-.7l1.3-3.4a1 1 0 0 0-1.8-.8L24.3 14a8.3 8.3 0 0 0-1.3-.3V8l4-4a1 1 0 1 0-1.3-1.4L23 5.2v-4a1 1 0 0 0-2 0v4l-2.7-2.6A1 1 0 1 0 17 4l4 4v5.7a8.4 8.4 0 0 0-1.3.2l-1.4-3.5a1 1 0 1 0-1.8.8l1.4 3.4a8.4 8.4 0 0 0-1.2.7l-4-4V5.7a1 1 0 0 0-2 0v3.7L8.2 6.6A1 1 0 1 0 6.7 8l2.8 3H5.7a1 1 0 0 0 0 2h5.7l4 3.8a8.3 8.3 0 0 0-.7 1l-3.4-1.3a1 1 0 1 0-.8 1.8l3.4 1.4a8.4 8.4 0 0 0-.3 1.3H8l-4-4a1 1 0 1 0-1.4 1.3L5.2 21h-4a1 1 0 0 0 0 2h4l-2.6 2.7A1 1 0 1 0 4 27l4-4h5.7c0 .4 0 1 .2 1.3l-3.5 1.4a1 1 0 0 0 .8 1.8l3.4-1.4.7 1.2-4 4H5.7a1 1 0 0 0 0 2h3.7l-2.8 2.7A1 1 0 1 0 8 37.3l3-2.8v3.7a1 1 0 0 0 2 0v-5.7l3.8-4 1 .7-1.3 3.4a1 1 0 0 0 1 1.4 1 1 0 0 0 .8-.5l1.4-3.4a8.4 8.4 0 0 0 1.3.3V36l-4 4a1 1 0 1 0 1.3 1.4l2.7-2.6v4a1 1 0 0 0 2 0v-4l2.7 2.6a1 1 0 0 0 1.4 0 1 1 0 0 0 0-1.4l-4-4v-5.7a8.4 8.4 0 0 0 1.3-.2l1.4 3.5a1 1 0 0 0 1.3.5 1 1 0 0 0 .5-1.3L26 29.3a8.3 8.3 0 0 0 1.2-.7l4 4v5.7a1 1 0 0 0 2 0v-3.7l2.7 2.8a1 1 0 0 0 1.4 0 1 1 0 0 0 0-1.5l-2.8-3h3.7a1 1 0 0 0 0-2h-5.7l-4-3.8.7-1 3.4 1.3A1 1 0 0 0 34 27a1 1 0 0 0-.5-1.3L30 24.3a8.4 8.4 0 0 0 .3-1.3H36l4 4a1 1 0 0 0 1.4 0 1 1 0 0 0 0-1.3L38.8 23h4a1 1 0 0 0 0-2zM22 28.4a6.4 6.4 0 0 1-6.4-6.4 6.4 6.4 0 0 1 6.4-6.4 6.4 6.4 0 0 1 6.4 6.4 6.4 6.4 0 0 1-6.4 6.4z"/></svg>
