<svg xmlns="http://www.w3.org/2000/svg" viewBox="0 0 100 125"><path d="M50 61.095c-6.119 0-11.097-4.978-11.097-11.096S43.881 38.904 50 38.904c6.118 0 11.096 4.978 11.096 11.096S56.118 61.095 50 61.095zm0-20.191c-5.016 0-9.097 4.08-9.097 9.096s4.081 9.096 9.097 9.096c5.016 0 9.096-4.08 9.096-9.096S55.015 40.904 50 40.904zm0 30.81a1 1 0 0 1-1-1V65.38a1 1 0 0 1 2 0v5.334a1 1 0 0 1-1 1zm0-36.095a1 1 0 0 1-1-1v-5.334a1 1 0 0 1 2 0v5.334a1 1 0 0 1-1 1zM70.715 51h-5.333a1 1 0 0 1 0-2h5.333a1 1 0 0 1 0 2zm-36.096 0h-5.334a1 1 0 0 1 0-2h5.334a1 1 0 0 1 0 2zm.733 14.648a.999.999 0 0 1-.707-1.707l3.772-3.771a.999.999 0 1 1 1.414 1.414l-3.772 3.771a.997.997 0 0 1-.707.293zm25.524-25.525a.999.999 0 0 1-.707-1.707l3.771-3.77a.999.999 0 1 1 1.414 1.414l-3.771 3.77a.997.997 0 0 1-.707.293zm3.771 25.525a.997.997 0 0 1-.707-.293l-3.771-3.771a.999.999 0 1 1 1.414-1.414l3.771 3.771a.999.999 0 0 1-.707 1.707zM39.123 40.123a.997.997 0 0 1-.707-.293l-3.771-3.77a.999.999 0 1 1 1.414-1.414l3.771 3.77a.999.999 0 0 1-.707 1.707z"/></svg>