<svg width="44" height="44" viewBox="0 0 44 44" xmlns="http://www.w3.org/2000/svg"><title>noun_121291_cc</title><path d="M42.715 21h-3.961l2.668-2.668a.999.999 0 1 0-1.414-1.414L35.926 21h-5.588a8.42 8.42 0 0 0-.254-1.266l3.4-1.408a1 1 0 0 0-.766-1.848l-3.399 1.408a8.422 8.422 0 0 0-.72-1.071l3.955-3.955h5.773a1 1 0 0 0 0-2h-3.773l2.801-2.801a.999.999 0 1 0-1.414-1.414L33.14 9.446V5.673a1 1 0 0 0-2 0v5.773l-3.955 3.955a8.445 8.445 0 0 0-1.07-.72l1.408-3.399a1.001 1.001 0 0 0-1.848-.766l-1.408 3.4A8.286 8.286 0 0 0 23 13.662V8.074l4.082-4.082a.999.999 0 1 0-1.414-1.414L23 5.246V1.285a1 1 0 0 0-2 0v3.961l-2.668-2.668a.999.999 0 1 0-1.414 1.414L21 8.074v5.588a8.42 8.42 0 0 0-1.266.254l-1.408-3.4a1 1 0 1 0-1.848.766l1.408 3.399a8.422 8.422 0 0 0-1.071.72l-3.955-3.955V5.673a1 1 0 0 0-2 0v3.773L8.059 6.645a.999.999 0 1 0-1.414 1.414l2.801 2.801H5.673a1 1 0 0 0 0 2h5.773l3.955 3.955a8.282 8.282 0 0 0-.72 1.071l-3.399-1.408a1 1 0 1 0-.766 1.848l3.4 1.408A8.42 8.42 0 0 0 13.662 21H8.074l-4.082-4.082a.999.999 0 1 0-1.414 1.414L5.246 21H1.285a1 1 0 0 0 0 2h3.961l-2.668 2.668a.999.999 0 1 0 1.414 1.414L8.074 23h5.589c.052.433.139.855.254 1.266l-3.4 1.408a1 1 0 0 0 .765 1.848l3.399-1.408c.212.376.454.733.72 1.071l-3.955 3.955H5.673a1 1 0 0 0 0 2h3.773l-2.801 2.801a.999.999 0 1 0 1.414 1.414l2.801-2.801v3.773a1 1 0 0 0 2 0v-5.773l3.955-3.955c.338.266.695.508 1.071.72l-1.408 3.399a1.001 1.001 0 0 0 .923 1.384 1 1 0 0 0 .924-.618l1.408-3.4a8.42 8.42 0 0 0 1.266.254v5.588l-4.082 4.082a.999.999 0 1 0 1.414 1.414L21 38.753v3.961a1 1 0 0 0 2 0v-3.961l2.668 2.668a.997.997 0 0 0 1.414 0 .999.999 0 0 0 0-1.414L23 35.925v-5.588a8.395 8.395 0 0 0 1.266-.254l1.409 3.4a1.001 1.001 0 0 0 1.306.541 1 1 0 0 0 .541-1.307l-1.408-3.399a8.34 8.34 0 0 0 1.07-.72l3.955 3.955v5.773a1 1 0 0 0 2 0v-3.773l2.801 2.801a.997.997 0 0 0 1.414 0 .999.999 0 0 0 0-1.414l-2.801-2.801h3.773a1 1 0 0 0 0-2h-5.773l-3.955-3.955c.266-.337.507-.694.72-1.071l3.399 1.408a.995.995 0 0 0 1.306-.541 1.001 1.001 0 0 0-.541-1.307l-3.4-1.408a8.42 8.42 0 0 0 .254-1.266h5.589l4.082 4.082a.997.997 0 0 0 1.414 0 .999.999 0 0 0 0-1.414L38.754 23h3.961a1 1 0 0 0 0-2zM22 28.402a6.41 6.41 0 0 1-6.402-6.403A6.41 6.41 0 0 1 22 15.597a6.41 6.41 0 0 1 6.402 6.402A6.41 6.41 0 0 1 22 28.402z"/></svg>