<svg class="icon-min" xmlns="http://www.w3.org/2000/svg" viewBox="0 0 100 125"><path d="M70.715 49h-3.961l2.668-2.668a.999.999 0 1 0-1.414-1.414L63.926 49h-5.588a8.42 8.42 0 0 0-.254-1.266l3.4-1.408a1 1 0 0 0-.766-1.848l-3.399 1.408a8.422 8.422 0 0 0-.72-1.071l3.955-3.955h5.773a1 1 0 0 0 0-2h-3.773l2.801-2.801a.999.999 0 1 0-1.414-1.414l-2.801 2.801v-3.773a1 1 0 0 0-2 0v5.773l-3.955 3.955a8.445 8.445 0 0 0-1.07-.72l1.408-3.399a1.001 1.001 0 0 0-1.848-.766l-1.408 3.4A8.286 8.286 0 0 0 51 41.662v-5.588l4.082-4.082a.999.999 0 1 0-1.414-1.414L51 33.246v-3.961a1 1 0 0 0-2 0v3.961l-2.668-2.668a.999.999 0 1 0-1.414 1.414L49 36.074v5.588a8.42 8.42 0 0 0-1.266.254l-1.408-3.4a1 1 0 1 0-1.848.766l1.408 3.399a8.422 8.422 0 0 0-1.071.72l-3.955-3.955v-5.773a1 1 0 0 0-2 0v3.773l-2.801-2.801a.999.999 0 1 0-1.414 1.414l2.801 2.801h-3.773a1 1 0 0 0 0 2h5.773l3.955 3.955a8.282 8.282 0 0 0-.72 1.071l-3.399-1.408a1 1 0 1 0-.766 1.848l3.4 1.408A8.42 8.42 0 0 0 41.662 49h-5.588l-4.082-4.082a.999.999 0 1 0-1.414 1.414L33.246 49h-3.961a1 1 0 0 0 0 2h3.961l-2.668 2.668a.999.999 0 1 0 1.414 1.414L36.074 51h5.589c.052.433.139.855.254 1.266l-3.4 1.408a1 1 0 0 0 .765 1.848l3.399-1.408c.212.376.454.733.72 1.071l-3.955 3.955h-5.773a1 1 0 0 0 0 2h3.773l-2.801 2.801a.999.999 0 1 0 1.414 1.414l2.801-2.801v3.773a1 1 0 0 0 2 0v-5.773l3.955-3.955c.338.266.695.508 1.071.72l-1.408 3.399a1.001 1.001 0 0 0 .923 1.384 1 1 0 0 0 .924-.618l1.408-3.4a8.42 8.42 0 0 0 1.266.254v5.588l-4.082 4.082a.999.999 0 1 0 1.414 1.414L49 66.753v3.961a1 1 0 0 0 2 0v-3.961l2.668 2.668a.997.997 0 0 0 1.414 0 .999.999 0 0 0 0-1.414L51 63.925v-5.588a8.395 8.395 0 0 0 1.266-.254l1.409 3.4a1.001 1.001 0 0 0 1.306.541 1 1 0 0 0 .541-1.307l-1.408-3.399a8.34 8.34 0 0 0 1.07-.72l3.955 3.955v5.773a1 1 0 0 0 2 0v-3.773l2.801 2.801a.997.997 0 0 0 1.414 0 .999.999 0 0 0 0-1.414l-2.801-2.801h3.773a1 1 0 0 0 0-2h-5.773l-3.955-3.955c.266-.337.507-.694.72-1.071l3.399 1.408a.995.995 0 0 0 1.306-.541 1.001 1.001 0 0 0-.541-1.307l-3.4-1.408a8.42 8.42 0 0 0 .254-1.266h5.589l4.082 4.082a.997.997 0 0 0 1.414 0 .999.999 0 0 0 0-1.414L66.754 51h3.961a1 1 0 0 0 0-2zM50 56.402a6.41 6.41 0 0 1-6.402-6.403c0-3.53 2.872-6.402 6.402-6.402s6.402 2.872 6.402 6.402A6.41 6.41 0 0 1 50 56.402z"/></svg>